<?xml version="1.0" standalone="no"?>
<!DOCTYPE svg PUBLIC "-//W3C//DTD SVG 20010904//EN"
 "http://www.w3.org/TR/2001/REC-SVG-20010904/DTD/svg10.dtd">
<svg version="1.0" xmlns="http://www.w3.org/2000/svg"
 width="4096.000000pt" height="4096.000000pt" viewBox="0 0 4096.000000 4096.000000"
 preserveAspectRatio="xMidYMid meet">

<g transform="translate(0.000000,4096.000000) scale(0.100000,-0.100000)"
fill="#000000" stroke="none">
<path d="M29249 36010 c-58 -17 -153 -76 -236 -147 -49 -40 -123 -101 -167
-135 -134 -104 -483 -398 -651 -548 -204 -183 -791 -770 -919 -920 -307 -359
-447 -596 -716 -1215 -274 -629 -578 -1166 -884 -1560 -272 -352 -736 -820
-948 -959 l-110 -72 -58 29 c-65 32 -151 46 -445 69 -336 26 -2647 10 -3150
-22 -455 -29 -771 -79 -1044 -166 -124 -39 -180 -75 -226 -146 l-30 -46 -65 5
c-59 5 -96 -3 -415 -90 -889 -244 -1314 -322 -1821 -334 -347 -8 -609 17 -883
87 -215 54 -300 88 -708 281 -160 76 -376 176 -480 223 -528 236 -675 323
-1303 771 -548 390 -913 620 -1895 1192 -662 386 -990 565 -1440 788 -875 433
-1671 713 -2345 824 -535 89 -849 66 -1155 -83 -176 -87 -351 -231 -419 -347
-60 -104 -64 -234 -10 -340 21 -43 23 -51 8 -38 -72 63 -229 89 -331 55 -141
-47 -209 -170 -288 -524 -122 -551 -161 -997 -186 -2142 -19 -883 1 -1696 57
-2255 119 -1206 346 -2498 686 -3905 76 -315 113 -443 230 -800 292 -887 594
-1700 1083 -2915 247 -615 356 -875 541 -1291 578 -1307 1260 -2576 1875
-3494 240 -360 469 -677 963 -1340 137 -184 279 -375 315 -425 106 -147 451
-655 451 -665 0 -6 -28 -48 -62 -94 -154 -208 -281 -440 -527 -961 -98 -209
-269 -562 -379 -785 -447 -905 -823 -1746 -1197 -2675 -278 -691 -463 -1196
-926 -2530 -82 -236 -157 -449 -165 -473 -16 -42 -17 -43 -48 -35 -17 4 -65 8
-106 8 -64 0 -85 -5 -143 -32 -102 -49 -170 -106 -343 -293 -88 -94 -235 -253
-328 -353 -540 -582 -914 -1048 -1475 -1842 -198 -279 -610 -895 -786 -1175
-358 -569 -789 -1318 -990 -1720 -72 -144 -195 -422 -195 -440 0 -6 138 -10
374 -10 l374 0 18 46 c37 97 378 714 632 1144 568 961 1286 2010 1896 2770
222 277 319 387 729 834 32 35 37 37 31 16 -4 -14 -49 -160 -101 -325 -397
-1267 -608 -2109 -697 -2785 -50 -374 -131 -1325 -123 -1445 5 -85 34 -151 92
-212 l42 -43 205 0 205 0 47 50 c26 28 56 71 68 96 22 51 23 61 68 629 63 793
128 1220 270 1784 317 1260 744 2610 1375 4351 777 2145 952 2560 2000 4730
325 674 507 1036 566 1128 l41 64 161 -159 c195 -192 237 -218 357 -218 65 0
85 5 142 33 132 65 208 183 208 325 0 109 -26 154 -170 301 -66 67 -120 126
-120 129 0 4 8 7 19 7 38 0 138 79 194 153 96 128 147 234 276 580 174 464
263 875 410 1897 66 457 108 729 180 1175 66 409 114 734 131 897 24 219 -28
362 -155 429 -29 15 -43 29 -41 39 90 342 229 687 554 1382 205 435 303 655
377 843 69 174 231 668 324 985 44 151 87 295 96 320 63 175 75 326 35 418
-21 48 -98 132 -121 132 -16 0 -10 23 40 150 197 504 417 924 978 1870 132
223 277 468 322 545 45 77 207 390 358 695 271 545 276 556 281 626 4 61 1 80
-20 126 -51 110 -145 171 -264 172 l-72 0 66 96 c489 706 800 1015 1582 1573
213 152 634 434 694 464 64 32 151 49 321 63 363 28 573 60 1204 181 1326 255
1877 332 2481 346 344 8 475 -1 1325 -86 320 -32 511 -46 775 -56 l165 -7 45
-42 c53 -49 130 -82 216 -91 33 -3 161 -10 286 -14 l227 -7 60 -57 c82 -79
135 -101 236 -101 84 0 146 19 202 64 37 29 77 26 274 -24 272 -70 528 -149
1159 -360 322 -108 727 -238 901 -290 336 -101 518 -163 664 -228 137 -61 299
-156 364 -212 49 -44 347 -359 518 -549 141 -156 280 -415 428 -792 133 -341
182 -458 260 -616 82 -167 109 -208 295 -454 75 -99 147 -200 162 -225 30 -53
102 -257 228 -645 91 -282 188 -525 251 -631 44 -73 215 -253 320 -335 194
-153 272 -198 732 -417 320 -154 438 -269 623 -612 234 -434 238 -440 470
-725 284 -347 290 -356 334 -492 99 -306 188 -818 230 -1328 18 -215 24 -750
11 -975 -22 -390 -63 -725 -132 -1065 -108 -532 -222 -876 -430 -1295 -142
-285 -237 -447 -578 -995 -158 -253 -338 -544 -399 -646 -109 -183 -113 -187
-166 -213 -63 -31 -130 -99 -157 -161 -54 -122 -369 -322 -739 -468 -420 -166
-798 -251 -1790 -402 -204 -31 -255 -51 -324 -125 -74 -79 -91 -125 -91 -250
0 -97 2 -109 29 -158 37 -66 92 -116 165 -151 52 -24 66 -26 186 -26 106 1
158 7 285 33 85 17 205 39 265 48 592 85 1210 237 1563 383 l74 31 -7 -98
c-24 -390 -33 -2168 -15 -2977 18 -777 52 -1234 200 -2625 117 -1096 132
-1266 250 -2681 125 -1507 148 -1685 386 -2929 129 -670 136 -719 194 -1265
51 -489 90 -766 137 -987 l16 -78 360 0 c327 0 359 1 353 16 -4 9 -20 67 -36
128 -38 141 -70 361 -115 791 -72 689 -83 764 -225 1503 -147 774 -217 1190
-254 1522 -20 177 -94 981 -151 1645 -126 1471 -179 2027 -265 2805 -64 580
-91 865 -114 1230 -54 829 -69 1799 -45 2991 6 305 11 687 12 850 l2 295 -27
41 -27 40 54 6 c105 11 215 87 263 184 11 21 30 70 42 108 54 165 214 446 650
1145 689 1104 873 1485 1050 2175 173 671 252 1304 252 2020 0 700 -70 1290
-231 1944 -64 263 -102 357 -174 436 l-43 48 21 41 c16 33 20 60 20 136 -1
125 -13 148 -177 342 -71 84 -187 226 -256 316 -283 364 -380 522 -715 1167
-74 143 -164 311 -201 373 -334 571 -547 1101 -611 1522 -31 208 -67 565 -85
845 -10 172 -24 606 -40 1315 -12 519 -20 676 -61 1250 -76 1078 -168 1802
-324 2545 -97 459 -192 808 -351 1290 -417 1257 -779 1970 -1229 2420 -210
211 -401 328 -623 382 -78 19 -272 22 -344 4 -143 -34 -250 -110 -297 -209
l-23 -50 -47 21 c-80 37 -252 28 -374 -19 -11 -4 -14 9 -14 63 -1 99 -32 174
-102 244 -71 70 -142 99 -239 98 -37 0 -79 -4 -93 -9z m1056 -815 c52 -26 70
-30 140 -29 46 1 97 8 121 17 41 15 43 15 108 -18 302 -152 574 -508 831
-1090 70 -158 303 -738 378 -940 296 -800 507 -1737 631 -2815 87 -746 128
-1418 186 -2995 48 -1324 59 -1455 155 -1842 123 -503 365 -1066 686 -1599 27
-45 49 -84 49 -87 0 -8 -156 63 -241 110 -132 73 -252 159 -329 236 -150 151
-186 234 -435 1007 -89 276 -206 494 -382 708 -37 46 -85 107 -105 135 -67 92
-193 364 -338 727 -196 488 -318 726 -467 908 -43 54 -44 55 -37 112 12 107
-34 192 -154 283 -31 24 -120 84 -197 134 -78 49 -190 129 -250 177 -61 47
-132 96 -158 109 -27 12 -122 58 -210 102 -89 45 -203 95 -254 113 l-91 33 54
85 c119 191 128 251 129 864 0 626 -20 859 -135 1560 -142 862 -238 1210 -472
1720 -142 309 -229 454 -353 588 -49 52 -149 139 -183 158 -5 3 124 295 205
464 225 469 479 838 652 949 46 30 50 31 105 20 103 -19 217 22 267 95 13 20
26 35 29 33 3 -1 32 -15 65 -32z m-2979 -2142 c-14 -26 -25 -45 -26 -41 0 12
43 98 48 94 2 -2 -8 -26 -22 -53z m-20394 -79 c69 -23 187 -16 247 15 41 22
46 22 80 7 48 -20 64 -24 146 -35 41 -6 268 -75 540 -165 259 -85 531 -173
605 -196 368 -114 655 -247 1410 -653 817 -439 1137 -632 1410 -850 312 -250
1316 -1194 1683 -1582 267 -282 276 -295 372 -519 96 -221 249 -609 360 -911
172 -468 478 -1346 540 -1551 95 -314 245 -907 232 -920 -2 -2 -49 51 -104
118 -194 239 -478 529 -1098 1120 -154 147 -352 345 -440 440 -88 95 -235 251
-326 348 -209 220 -1134 1138 -1294 1284 -356 325 -620 487 -925 568 -149 39
-362 49 -509 24 -266 -47 -481 -164 -701 -385 -165 -165 -271 -321 -354 -522
-80 -194 -112 -355 -126 -636 -19 -391 24 -797 141 -1343 102 -477 162 -701
379 -1434 208 -705 234 -800 321 -1150 137 -550 186 -709 309 -1006 83 -199
139 -351 275 -740 56 -162 124 -353 151 -424 35 -95 45 -131 35 -134 -40 -13
-167 -111 -228 -176 -173 -181 -257 -356 -383 -791 -127 -438 -183 -766 -196
-1140 -5 -135 -11 -188 -23 -210 -10 -20 -16 -59 -16 -121 l-1 -91 -37 -33
c-21 -18 -39 -31 -41 -29 -21 27 -325 730 -578 1338 -684 1646 -1241 3198
-1448 4036 -387 1569 -617 3009 -700 4385 -31 514 -39 1202 -20 1696 5 142 15
381 20 529 27 689 70 1028 190 1506 54 212 52 253 -18 392 -2 4 12 -3 32 -17
20 -14 60 -32 88 -42z m7675 -4292 c30 -74 52 -136 50 -138 -2 -3 -12 17 -22
43 -10 27 -47 113 -82 193 -78 174 -86 198 -38 106 21 -38 62 -130 92 -204z
m2959 43 c-49 -43 -57 -44 -45 -3 5 18 9 34 9 35 0 2 17 3 38 3 l37 -1 -39
-34z m-2886 -230 c0 -5 -5 -3 -10 5 -5 8 -10 20 -10 25 0 6 5 3 10 -5 5 -8 10
-19 10 -25z m-4170 -7280 c-33 -19 -46 -19 -30 0 7 8 22 15 34 15 20 -1 20 -2
-4 -15z"/>
<path d="M29226 27689 c-224 -22 -501 -80 -686 -144 -243 -85 -406 -169 -565
-293 -443 -343 -567 -787 -390 -1401 98 -342 233 -592 419 -777 83 -83 116
-108 186 -143 116 -57 212 -68 343 -41 193 39 427 68 872 105 267 23 310 29
389 56 216 72 254 94 461 260 144 116 256 233 329 344 50 76 54 87 75 205 39
220 43 277 48 722 5 384 3 446 -11 512 -45 199 -160 311 -327 319 -52 3 -57 6
-120 68 -101 100 -252 167 -463 204 -98 17 -403 19 -560 4z"/>
<path d="M20080 26779 c-405 -21 -625 -75 -909 -225 -234 -124 -420 -276 -522
-427 -15 -21 -66 -73 -115 -116 -134 -117 -344 -328 -398 -399 -60 -79 -130
-210 -151 -286 -25 -87 -17 -232 17 -306 58 -125 152 -190 287 -198 52 -3 90
1 120 11 l44 16 126 -51 c69 -27 197 -77 285 -109 124 -46 168 -67 200 -97
102 -94 220 -154 358 -182 142 -30 250 -35 338 -16 66 14 82 14 150 1 41 -8
170 -24 285 -34 116 -11 404 -39 640 -61 386 -38 448 -41 610 -36 317 10 618
73 936 196 184 70 246 151 270 346 17 145 9 170 -144 449 -148 270 -262 426
-462 633 -309 320 -575 526 -862 671 -130 65 -265 111 -466 160 -250 60 -384
73 -637 60z"/>
<path d="M27082 21812 c-69 -25 -117 -65 -169 -140 -74 -108 -81 -224 -21
-339 164 -313 199 -375 291 -513 l17 -26 -608 5 c-334 2 -1169 -2 -1857 -8
-687 -7 -1432 -14 -1655 -16 -372 -3 -412 -4 -487 -24 -196 -50 -294 -140
-323 -299 -24 -136 39 -291 143 -347 27 -14 36 -27 46 -66 54 -210 375 -414
752 -478 193 -33 429 -47 1234 -76 728 -26 1099 -21 1750 24 430 30 1371 39
3050 31 1035 -6 1187 3 1530 90 365 92 659 256 874 486 122 131 186 298 198
519 9 177 -34 461 -86 563 -47 92 -152 163 -268 182 -97 16 -169 -2 -328 -80
-184 -90 -301 -135 -715 -273 -357 -120 -512 -163 -710 -197 -312 -53 -717
-74 -1232 -64 l-348 7 0 36 c1 114 21 343 40 451 24 133 22 211 -4 274 -21 51
-90 121 -160 163 -55 34 -68 37 -151 41 -56 3 -96 9 -105 18 -68 59 -224 79
-330 42 l-65 -23 -48 24 c-67 33 -181 39 -255 13z"/>
<path d="M14819 15027 c-78 -32 -126 -72 -170 -140 -79 -122 -77 -277 5 -386
32 -43 111 -103 179 -134 62 -30 473 -177 1025 -368 355 -122 411 -139 467
-139 134 0 246 74 311 206 33 65 37 84 37 147 0 58 -5 85 -27 132 -28 62 -88
132 -141 165 -17 10 -213 82 -435 159 -223 77 -517 181 -655 232 -410 150
-404 149 -475 149 -45 0 -82 -8 -121 -23z"/>
</g>
</svg>
